<svg width="20" height="20" viewBox="0 0 20 20" fill="none" xmlns="http://www.w3.org/2000/svg">
<path fill-rule="evenodd" clip-rule="evenodd" d="M10.0001 3C10.1034 2.99999 10.2055 3.0213 10.3001 3.0626C10.3948 3.10389 10.4799 3.16429 10.5501 3.24L13.8001 6.74C13.8671 6.81223 13.9192 6.89694 13.9534 6.9893C13.9876 7.08166 14.0033 7.17985 13.9996 7.27828C13.9959 7.37671 13.9728 7.47345 13.9317 7.56297C13.8906 7.65248 13.8323 7.73303 13.7601 7.8C13.6879 7.86697 13.6032 7.91907 13.5108 7.9533C13.4184 7.98754 13.3202 8.00325 13.2218 7.99953C13.1234 7.99582 13.0266 7.97275 12.9371 7.93165C12.8476 7.89056 12.7671 7.83223 12.7001 7.76L10.0001 4.852L7.30009 7.76C7.16483 7.90587 6.97717 7.99203 6.77838 7.99953C6.57959 8.00703 6.38596 7.93526 6.24009 7.8C6.09422 7.66474 6.00806 7.47707 6.00056 7.27828C5.99306 7.0795 6.06483 6.88587 6.20009 6.74L9.45009 3.24C9.52031 3.16429 9.6054 3.10389 9.70005 3.0626C9.79469 3.0213 9.89684 2.99999 10.0001 3ZM6.24009 12.2C6.31232 12.133 6.39703 12.0809 6.48939 12.0467C6.58175 12.0124 6.67995 11.9967 6.77838 12.0004C6.87681 12.0042 6.97355 12.0272 7.06307 12.0683C7.15258 12.1094 7.23313 12.1678 7.30009 12.24L10.0001 15.148L12.7001 12.24C12.8354 12.0941 13.023 12.008 13.2218 12.0005C13.4206 11.993 13.6142 12.0647 13.7601 12.2C13.906 12.3353 13.9921 12.5229 13.9996 12.7217C14.0071 12.9205 13.9354 13.1141 13.8001 13.26L10.5501 16.76C10.4799 16.8357 10.3948 16.8961 10.3002 16.9375C10.2055 16.9788 10.1034 17.0001 10.0001 17.0001C9.89683 17.0001 9.79467 16.9788 9.70003 16.9375C9.60539 16.8961 9.5203 16.8357 9.45009 16.76L6.20009 13.26C6.13311 13.1878 6.08101 13.1031 6.04677 13.0107C6.01253 12.9183 5.99682 12.8201 6.00053 12.7217C6.00425 12.6233 6.02732 12.5265 6.06842 12.437C6.10952 12.3475 6.16786 12.267 6.24009 12.2Z" fill="black"/>
</svg>
