<svg width="150" height="150" viewBox="0 0 150 150" fill="none" xmlns="http://www.w3.org/2000/svg">
<path d="M52.6954 98.6943H58.9577C62.2177 98.6943 64.8516 103.42 64.8516 109.252C64.8516 115.083 62.2104 119.806 58.9577 119.806H52.6954C49.4353 119.806 46.8015 115.079 46.8015 109.252C46.8015 103.424 49.4353 98.6943 52.6954 98.6943Z" fill="#263238"/>
<mask id="mask0_21_502" style="mask-type:luminance" maskUnits="userSpaceOnUse" x="46" y="98" width="19" height="22">
<path d="M52.6954 98.6943H58.9577C62.2177 98.6943 64.8516 103.42 64.8516 109.252C64.8516 115.083 62.2104 119.806 58.9577 119.806H52.6954C49.4353 119.806 46.8015 115.079 46.8015 109.252C46.8015 103.424 49.4353 98.6943 52.6954 98.6943Z" fill="white"/>
</mask>
<g mask="url(#mask0_21_502)">
<path opacity="0.05" d="M45.3282 98.6943H51.5905C54.8505 98.6943 57.4844 103.42 57.4844 109.252C57.4844 115.083 54.8432 119.806 51.5905 119.806H45.3282C42.0681 119.806 39.4343 115.079 39.4343 109.252C39.4343 103.424 42.0681 98.6943 45.3282 98.6943Z" fill="white"/>
</g>
<path d="M1.96708 100.956L111.627 100.879V30.8333H1.96708V100.956Z" fill="#0B489D"/>
<path opacity="0.3" d="M1.96687 30.8333H76.2891V100.952H1.96687V30.8333Z" fill="#263238"/>
<path opacity="0.2" d="M76.2893 30.8333H111.627V102.338H76.2893V30.8333Z" fill="white"/>
<path opacity="0.1" d="M111.361 34.0898H1.96666" stroke="white" stroke-width="2" stroke-linecap="round" stroke-linejoin="round"/>
<path opacity="0.1" d="M111.361 37.1214H1.96666" stroke="white" stroke-width="2" stroke-linecap="round" stroke-linejoin="round"/>
<path opacity="0.1" d="M111.361 40.1494H1.96666" stroke="white" stroke-width="2" stroke-linecap="round" stroke-linejoin="round"/>
<path opacity="0.1" d="M111.361 43.1774H1.96666" stroke="white" stroke-width="2" stroke-linecap="round" stroke-linejoin="round"/>
<path opacity="0.1" d="M111.361 46.209H1.96666" stroke="white" stroke-width="2" stroke-linecap="round" stroke-linejoin="round"/>
<path opacity="0.1" d="M111.361 49.237H1.96666" stroke="white" stroke-width="2" stroke-linecap="round" stroke-linejoin="round"/>
<path opacity="0.1" d="M111.361 52.2652H1.96666" stroke="white" stroke-width="2" stroke-linecap="round" stroke-linejoin="round"/>
<path opacity="0.1" d="M111.361 55.2932H1.96666" stroke="white" stroke-width="2" stroke-linecap="round" stroke-linejoin="round"/>
<path opacity="0.1" d="M111.361 58.3248H1.96666" stroke="white" stroke-width="2" stroke-linecap="round" stroke-linejoin="round"/>
<path opacity="0.1" d="M111.361 61.3528H1.96666" stroke="white" stroke-width="2" stroke-linecap="round" stroke-linejoin="round"/>
<path opacity="0.1" d="M111.361 64.3807H1.96666" stroke="white" stroke-width="2" stroke-linecap="round" stroke-linejoin="round"/>
<path opacity="0.1" d="M111.361 67.4125H1.96666" stroke="white" stroke-width="2" stroke-linecap="round" stroke-linejoin="round"/>
<path opacity="0.1" d="M111.361 70.4403H1.96666" stroke="white" stroke-width="2" stroke-linecap="round" stroke-linejoin="round"/>
<path opacity="0.1" d="M111.361 73.4683H1.96666" stroke="white" stroke-width="2" stroke-linecap="round" stroke-linejoin="round"/>
<path opacity="0.1" d="M111.361 76.4964H1.96666" stroke="white" stroke-width="2" stroke-linecap="round" stroke-linejoin="round"/>
<path opacity="0.1" d="M111.361 79.5282H1.96666" stroke="white" stroke-width="2" stroke-linecap="round" stroke-linejoin="round"/>
<path opacity="0.1" d="M111.361 82.5562H1.96666" stroke="white" stroke-width="2" stroke-linecap="round" stroke-linejoin="round"/>
<path opacity="0.1" d="M111.361 85.5842H1.96666" stroke="white" stroke-width="2" stroke-linecap="round" stroke-linejoin="round"/>
<path opacity="0.1" d="M111.361 88.6157H1.96666" stroke="white" stroke-width="2" stroke-linecap="round" stroke-linejoin="round"/>
<path opacity="0.1" d="M111.361 91.6438H1.96666" stroke="white" stroke-width="2" stroke-linecap="round" stroke-linejoin="round"/>
<path opacity="0.1" d="M111.361 94.6718H1.96666" stroke="white" stroke-width="2" stroke-linecap="round" stroke-linejoin="round"/>
<path opacity="0.1" d="M111.361 97.7034H1.96666" stroke="white" stroke-width="2" stroke-linecap="round" stroke-linejoin="round"/>
<path d="M131.751 100.072H137.545C140.566 100.072 143.012 104.448 143.012 109.849C143.012 115.249 140.566 119.621 137.545 119.621H131.751C128.73 119.621 126.284 115.245 126.284 109.849C126.284 104.452 128.73 100.072 131.751 100.072Z" fill="#263238"/>
<path opacity="0.05" d="M124.38 100.072H130.178C133.199 100.072 135.645 104.448 135.645 109.849C135.645 115.249 133.199 119.621 130.178 119.621H124.38C121.363 119.621 118.913 115.245 118.913 109.849C118.913 104.452 121.363 100.072 124.38 100.072Z" fill="white"/>
<path d="M134.974 80.9795H137.715C138.252 80.9979 138.694 80.4232 138.705 79.6939C138.713 79.6179 138.713 79.5414 138.705 79.4655L137.969 71.1882C137.877 70.3373 137.35 69.7147 136.716 69.6742H133.95C133.416 69.6742 132.974 70.2378 132.963 70.9672C132.963 71.0409 132.963 71.1145 132.963 71.1882L133.699 79.4655C133.81 80.3054 134.355 80.9574 134.974 80.9795Z" fill="#263238"/>
<path d="M132.233 53.639L137.52 82.1471L79.9692 104.691L80.3707 48.5076L93.0279 48.1393H127.699C129.784 48.1209 131.622 50.3605 132.233 53.639Z" fill="#0B489D"/>
<path d="M89.4142 58.2252C91.5618 58.1295 93.4884 59.8903 94.1183 62.5168L98.4724 80.7584H106.853L107.31 104.824H79.7445" fill="#0B489D"/>
<path d="M131.409 79.226C132.252 79.226 132.934 78.143 132.934 76.8095C132.934 76.577 132.912 76.3451 132.867 76.117L129.703 59.3783C129.438 57.9895 128.627 57.0391 127.71 57.0428H97.4375C97.1097 57.0428 96.8408 57.4627 96.8408 57.9858C96.84 58.0785 96.8487 58.1711 96.8665 58.2621C97.5296 61.71 99.6846 73.1332 100.51 77.502C100.701 78.5261 101.298 79.226 101.983 79.226H131.409Z" fill="#263238"/>
<path d="M103.553 86.6451C103.553 86.9384 103.574 87.2313 103.615 87.5218L103.774 88.6011L103.866 89.2384L104.543 93.8946L105.649 101.465L105.954 103.568H148.792V101.465L148.763 93.8946L148.722 89.3673V87.5255C149.09 85.0942 147.915 82.7367 146.125 82.2467C145.915 82.1894 145.698 82.1609 145.48 82.162H106.853C105.03 82.1473 103.553 84.1659 103.553 86.6451Z" fill="#0B489D"/>
<path d="M81.7781 59.3083V77.2516C81.7781 78.3382 82.3343 79.2223 83.0232 79.226H93.4922C94.1811 79.226 94.7373 78.3419 94.7373 77.2516C94.7375 77.0738 94.7227 76.8964 94.6931 76.7211L91.4662 58.3763C91.3115 57.4959 90.7958 56.9028 90.2211 56.936L82.979 57.3338C82.3085 57.3743 81.7781 58.2474 81.7781 59.3083Z" fill="#263238"/>
<path opacity="0.1" d="M113.749 57.0428H119.532L126.174 79.226H120.387L113.749 57.0428Z" fill="white"/>
<path opacity="0.1" d="M109.248 57.0428H112.01L118.648 79.226H115.889L109.248 57.0428Z" fill="white"/>
<path d="M92.4531 93.8945V101.464H148.784L148.755 93.8945H92.4531Z" fill="black"/>
<path d="M100.3 93.8945H105.508L114.876 99.3979V101.464H92.4533V93.8945H100.3Z" fill="white"/>
<path d="M139.074 99.3979V101.464H148.784L148.755 93.8945H148.438L139.074 99.3979Z" fill="white"/>
<path opacity="0.3" d="M79.944 104.824L80.3713 48.5077L88.1071 48.1393C90.0373 48.0435 92.266 50.2869 92.8296 52.8876L98.4361 82.1472H100.621C103.074 82.1472 104.754 83.9338 104.75 85.8309L104.717 104.831H79.944" fill="#263238"/>
<path d="M103.696 88.8663C103.697 88.9361 103.712 89.005 103.741 89.0685C103.771 89.132 103.813 89.1886 103.865 89.2346C103.955 89.3183 104.074 89.3644 104.197 89.3636H148.722V88.3616H104.186C104.101 88.3618 104.018 88.3836 103.944 88.4248C103.87 88.4661 103.807 88.5254 103.762 88.5974C103.716 88.6791 103.693 88.7722 103.696 88.8663Z" fill="#FE5F00"/>
<path d="M140.868 88.3653V89.3672H148.736L148.733 88.3653H140.868Z" fill="#263238"/>
<path d="M103.696 88.8663C103.697 88.9361 103.713 89.005 103.742 89.0685C103.771 89.132 103.813 89.1886 103.866 89.2346C103.956 89.3183 104.075 89.3644 104.197 89.3636H114.998V88.3616H104.197C104.113 88.3618 104.029 88.3836 103.955 88.4248C103.881 88.4661 103.819 88.5254 103.774 88.5974C103.723 88.678 103.697 88.7712 103.696 88.8663Z" fill="#263238"/>
<path d="M-1.09794e-07 102.776V102.975C-1.09794e-07 103.463 0.194055 103.932 0.539469 104.277C0.884882 104.623 1.35336 104.817 1.84185 104.817H148.158C148.647 104.817 149.115 104.623 149.461 104.277C149.806 103.932 150 103.463 150 102.975V102.776C150 102.287 149.806 101.819 149.461 101.474C149.115 101.128 148.647 100.934 148.158 100.934H1.84185C1.35336 100.934 0.884882 101.128 0.539469 101.474C0.194055 101.819 -1.09794e-07 102.287 -1.09794e-07 102.776Z" fill="#263238"/>
<path d="M115.712 102.448H137.52V103.513H115.712V102.448Z" fill="black"/>
<path d="M143.321 102.978C143.321 103.098 143.357 103.216 143.424 103.316C143.49 103.416 143.585 103.493 143.696 103.54C143.807 103.586 143.929 103.598 144.047 103.575C144.164 103.552 144.273 103.494 144.358 103.409C144.443 103.325 144.501 103.217 144.525 103.099C144.549 102.982 144.537 102.859 144.492 102.748C144.446 102.637 144.369 102.542 144.27 102.475C144.17 102.408 144.053 102.371 143.933 102.371C143.853 102.37 143.773 102.385 143.699 102.416C143.625 102.446 143.558 102.491 143.501 102.547C143.444 102.604 143.399 102.671 143.368 102.745C143.337 102.819 143.321 102.898 143.321 102.978Z" fill="white"/>
<path d="M110.503 102.978C110.503 103.099 110.539 103.216 110.606 103.316C110.672 103.416 110.767 103.494 110.878 103.54C110.989 103.586 111.112 103.598 111.23 103.574C111.347 103.551 111.456 103.493 111.541 103.408C111.626 103.323 111.684 103.215 111.707 103.097C111.731 102.979 111.718 102.857 111.672 102.746C111.626 102.635 111.549 102.54 111.449 102.473C111.349 102.406 111.231 102.371 111.111 102.371C111.031 102.371 110.952 102.386 110.878 102.417C110.805 102.447 110.738 102.492 110.681 102.549C110.625 102.605 110.58 102.672 110.549 102.746C110.519 102.82 110.503 102.899 110.503 102.978Z" fill="white"/>
<path d="M92.8811 109.012C92.8811 103.152 90.2252 98.3997 86.9467 98.3997H93.2421C96.5169 98.3997 99.1729 103.152 99.1729 109.012C99.1729 114.873 96.5169 119.621 93.2421 119.621H86.9467C90.2252 119.633 92.8811 114.884 92.8811 109.012Z" fill="black"/>
<path opacity="0.7" d="M92.8811 109.012C92.8811 103.152 90.2252 98.3997 86.9467 98.3997H93.2421C96.5169 98.3997 99.1729 103.152 99.1729 109.012C99.1729 114.873 96.5169 119.621 93.2421 119.621H86.9467C90.2252 119.633 92.8811 114.884 92.8811 109.012Z" fill="#263238"/>
<path d="M86.9464 119.636C83.6689 119.636 81.012 114.885 81.012 109.023C81.012 103.162 83.6689 98.4107 86.9464 98.4107C90.2239 98.4107 92.8809 103.162 92.8809 109.023C92.8809 114.885 90.2239 119.636 86.9464 119.636Z" fill="#263238"/>
<path d="M86.471 117.297C84.1476 117.297 82.2642 113.593 82.2642 109.023C82.2642 104.454 84.1476 100.75 86.471 100.75C88.7943 100.75 90.6777 104.454 90.6777 109.023C90.6777 113.593 88.7943 117.297 86.471 117.297Z" fill="white"/>
<path d="M86.8546 116.184C84.6309 116.184 82.8283 112.978 82.8283 109.023C82.8283 105.068 84.6309 101.862 86.8546 101.862C89.0782 101.862 90.8809 105.068 90.8809 109.023C90.8809 112.978 89.0782 116.184 86.8546 116.184Z" fill="#263238"/>
<path d="M87.7381 114.251C86.1147 114.251 84.7986 111.91 84.7986 109.023C84.7986 106.137 86.1147 103.796 87.7381 103.796C89.3616 103.796 90.6777 106.137 90.6777 109.023C90.6777 111.91 89.3616 114.251 87.7381 114.251Z" fill="black"/>
<path opacity="0.5" d="M-0.000230248 102.776V102.975C-0.000230248 103.463 0.193825 103.932 0.539238 104.277C0.884652 104.623 1.35313 104.817 1.84162 104.817H76.2891V100.934H1.84162C1.35313 100.934 0.884652 101.128 0.539238 101.474C0.193825 101.819 -0.000230248 102.287 -0.000230248 102.776Z" fill="black"/>
<path d="M23.1372 109.012C23.1372 103.152 20.4812 98.3997 17.2064 98.3997H23.4982C26.7767 98.3997 29.4326 103.152 29.4326 109.012C29.4326 114.873 26.7767 119.621 23.4982 119.621H17.2138C20.4812 119.633 23.1372 114.884 23.1372 109.012Z" fill="black"/>
<path opacity="0.7" d="M23.1372 109.012C23.1372 103.152 20.4812 98.3997 17.2064 98.3997H23.4982C26.7767 98.3997 29.4326 103.152 29.4326 109.012C29.4326 114.873 26.7767 119.621 23.4982 119.621H17.2138C20.4812 119.633 23.1372 114.884 23.1372 109.012Z" fill="#263238"/>
<path d="M17.2062 119.636C13.9287 119.636 11.2718 114.885 11.2718 109.023C11.2718 103.162 13.9287 98.4107 17.2062 98.4107C20.4837 98.4107 23.1406 103.162 23.1406 109.023C23.1406 114.885 20.4837 119.636 17.2062 119.636Z" fill="#263238"/>
<path d="M16.7278 117.297C14.4044 117.297 12.521 113.593 12.521 109.023C12.521 104.454 14.4044 100.75 16.7278 100.75C19.0511 100.75 20.9346 104.454 20.9346 109.023C20.9346 113.593 19.0511 117.297 16.7278 117.297Z" fill="white"/>
<path d="M17.1144 116.184C14.8907 116.184 13.0881 112.978 13.0881 109.023C13.0881 105.068 14.8907 101.862 17.1144 101.862C19.338 101.862 21.1406 105.068 21.1406 109.023C21.1406 112.978 19.338 116.184 17.1144 116.184Z" fill="#263238"/>
<path d="M17.9989 114.251C16.3754 114.251 15.0593 111.91 15.0593 109.023C15.0593 106.137 16.3754 103.796 17.9989 103.796C19.6224 103.796 20.9385 106.137 20.9385 109.023C20.9385 111.91 19.6224 114.251 17.9989 114.251Z" fill="black"/>
</svg>
