<svg width="155" height="85" viewBox="0 0 155 85" fill="none" xmlns="http://www.w3.org/2000/svg">
<path d="M155 52.5013V58.5034H145.568V83.7754H138.528V58.5034H129.096V52.5013H155Z" fill="#FE5F00"/>
<path d="M118.678 83.7754C116.662 80.1952 114.481 76.6601 112.134 73.1702C109.787 69.6802 107.29 66.3858 104.643 63.287V83.7754H97.6929V52.5013H103.424C104.417 53.4941 105.515 54.7126 106.719 56.1567C107.922 57.6008 109.14 59.1502 110.374 60.8049C111.638 62.4296 112.886 64.1294 114.12 65.9045C115.353 67.6494 116.512 69.3342 117.595 70.9589V52.5013H124.59V83.7754H118.678Z" fill="#FE5F00"/>
<path d="M70.325 83.7754V52.5013H91.4452V58.4131H77.365V64.5506H89.8657V70.3271H77.365V77.8635H92.4831V83.7754H70.325Z" fill="#FE5F00"/>
<path d="M56.0459 52.5013H63.086V83.7754H56.0459V52.5013Z" fill="#FE5F00"/>
<path d="M51.5115 77.7282V83.7754H30.6169V52.5013H37.657V77.7282H51.5115Z" fill="#FE5F00"/>
<path d="M15.6145 84.4072C10.53 84.4072 6.64895 82.9932 3.97132 80.1651C1.32377 77.337 0 73.3206 0 68.1157C0 65.5284 0.406158 63.2268 1.21847 61.2111C2.03079 59.1652 3.14396 57.4503 4.55799 56.0664C5.97202 54.6524 7.65683 53.5843 9.6124 52.8623C11.568 52.1402 13.689 51.7792 15.9755 51.7792C17.2993 51.7792 18.5027 51.8845 19.5858 52.0951C20.6689 52.2756 21.6166 52.5012 22.4289 52.772C23.2412 53.0127 23.9182 53.2684 24.4597 53.5392C25.0013 53.81 25.3924 54.0206 25.6331 54.171L23.6023 59.8572C22.6395 59.3457 21.5113 58.9095 20.2176 58.5485C18.954 58.1874 17.5099 58.0069 15.8853 58.0069C14.8022 58.0069 13.7341 58.1874 12.6811 58.5485C11.6582 58.9095 10.7406 59.4962 9.9283 60.3085C9.14607 61.0907 8.51427 62.1136 8.0329 63.3772C7.55153 64.6408 7.31084 66.1752 7.31084 67.9804C7.31084 69.4245 7.46127 70.7783 7.76213 72.0419C8.09307 73.2755 8.60453 74.3435 9.2965 75.2461C10.0186 76.1486 10.9512 76.8707 12.0945 77.4122C13.2377 77.9237 14.6217 78.1794 16.2463 78.1794C17.2692 78.1794 18.1868 78.1193 18.9992 77.9989C19.8115 77.8786 20.5335 77.7432 21.1653 77.5928C21.7971 77.4122 22.3537 77.2167 22.8351 77.0061C23.3165 76.7955 23.7527 76.5999 24.1438 76.4194L26.0844 82.0605C25.0915 82.6622 23.6925 83.2038 21.8874 83.6851C20.0822 84.1665 17.9913 84.4072 15.6145 84.4072Z" fill="#FE5F00"/>
<path d="M114.468 16.3366C114.468 17.8709 114.649 19.2549 115.01 20.4884C115.401 21.7219 115.942 22.79 116.634 23.6925C117.356 24.565 118.229 25.242 119.252 25.7233C120.275 26.2047 121.448 26.4454 122.772 26.4454C124.065 26.4454 125.224 26.2047 126.247 25.7233C127.3 25.242 128.172 24.565 128.864 23.6925C129.586 22.79 130.128 21.7219 130.489 20.4884C130.88 19.2549 131.075 17.8709 131.075 16.3366C131.075 14.8022 130.88 13.4183 130.489 12.1847C130.128 10.9211 129.586 9.85309 128.864 8.9806C128.172 8.07803 127.3 7.38606 126.247 6.90468C125.224 6.42331 124.065 6.18262 122.772 6.18262C121.448 6.18262 120.275 6.43835 119.252 6.94981C118.229 7.43118 117.356 8.12316 116.634 9.02573C115.942 9.89822 115.401 10.9663 115.01 12.2299C114.649 13.4634 114.468 14.8323 114.468 16.3366ZM138.341 16.3366C138.341 19.0142 137.935 21.3759 137.123 23.4218C136.34 25.4375 135.257 27.1374 133.873 28.5213C132.489 29.8752 130.835 30.8981 128.909 31.59C127.014 32.282 124.968 32.628 122.772 32.628C120.636 32.628 118.62 32.282 116.725 31.59C114.829 30.8981 113.174 29.8752 111.76 28.5213C110.346 27.1374 109.233 25.4375 108.421 23.4218C107.609 21.3759 107.202 19.0142 107.202 16.3366C107.202 13.6589 107.624 11.3122 108.466 9.2965C109.308 7.25067 110.437 5.53578 111.851 4.15184C113.295 2.76789 114.949 1.72993 116.815 1.03796C118.71 0.345987 120.696 0 122.772 0C124.908 0 126.924 0.345987 128.819 1.03796C130.714 1.72993 132.369 2.76789 133.783 4.15184C135.197 5.53578 136.31 7.25067 137.123 9.2965C137.935 11.3122 138.341 13.6589 138.341 16.3366Z" fill="#0B489D"/>
<path d="M92.123 6.1375C88.8436 6.1375 86.4668 7.05511 84.9926 8.89034C83.5485 10.6955 82.8265 13.1776 82.8265 16.3366C82.8265 17.8709 83.007 19.2699 83.368 20.5335C83.729 21.7671 84.2706 22.8351 84.9926 23.7377C85.7147 24.6402 86.6173 25.3473 87.7004 25.8587C88.7834 26.3401 90.047 26.5808 91.4912 26.5808C92.2734 26.5808 92.9353 26.5657 93.4768 26.5356C94.0485 26.5056 94.5449 26.4454 94.9661 26.3551V15.4791H102.006V30.9583C101.164 31.2892 99.8099 31.6352 97.9446 31.9962C96.0792 32.3873 93.7777 32.5829 91.0399 32.5829C88.6932 32.5829 86.5571 32.2219 84.6316 31.4998C82.7362 30.7777 81.1116 29.7247 79.7577 28.3408C78.4039 26.9568 77.3509 25.257 76.5987 23.2413C75.8767 21.2255 75.5156 18.9239 75.5156 16.3366C75.5156 13.7191 75.9218 11.4025 76.7341 9.38676C77.5464 7.37101 78.6596 5.67117 80.0736 4.28722C81.4876 2.87319 83.1424 1.80515 85.0378 1.08309C86.9633 0.361029 89.0091 0 91.1753 0C92.6495 0 93.9732 0.105301 95.1466 0.315902C96.35 0.496416 97.3729 0.722059 98.2153 0.992831C99.0878 1.23352 99.7948 1.48925 100.336 1.76002C100.908 2.03079 101.314 2.24139 101.555 2.39182L99.5241 8.0329C98.5613 7.52144 97.4481 7.0852 96.1845 6.72417C94.951 6.33305 93.5972 6.1375 92.123 6.1375Z" fill="#0B489D"/>
<path d="M47.1278 16.3366C47.1278 17.8709 47.3083 19.2549 47.6693 20.4884C48.0604 21.7219 48.602 22.79 49.2939 23.6925C50.016 24.565 50.8885 25.242 51.9114 25.7233C52.9343 26.2047 54.1077 26.4454 55.4314 26.4454C56.7251 26.4454 57.8834 26.2047 58.9063 25.7233C59.9593 25.242 60.8318 24.565 61.5238 23.6925C62.2459 22.79 62.7874 21.7219 63.1484 20.4884C63.5396 19.2549 63.7351 17.8709 63.7351 16.3366C63.7351 14.8022 63.5396 13.4183 63.1484 12.1847C62.7874 10.9211 62.2459 9.85309 61.5238 8.9806C60.8318 8.07803 59.9593 7.38606 58.9063 6.90468C57.8834 6.42331 56.7251 6.18262 55.4314 6.18262C54.1077 6.18262 52.9343 6.43835 51.9114 6.94981C50.8885 7.43118 50.016 8.12316 49.2939 9.02573C48.602 9.89822 48.0604 10.9663 47.6693 12.2299C47.3083 13.4634 47.1278 14.8323 47.1278 16.3366ZM71.0008 16.3366C71.0008 19.0142 70.5947 21.3759 69.7823 23.4218C69.0001 25.4375 67.917 27.1374 66.5331 28.5213C65.1491 29.8752 63.4944 30.8981 61.5689 31.59C59.6735 32.282 57.6277 32.628 55.4314 32.628C53.2954 32.628 51.2796 32.282 49.3842 31.59C47.4888 30.8981 45.8341 29.8752 44.4201 28.5213C43.006 27.1374 41.8929 25.4375 41.0805 23.4218C40.2682 21.3759 39.8621 19.0142 39.8621 16.3366C39.8621 13.6589 40.2833 11.3122 41.1257 9.2965C41.9681 7.25067 43.0963 5.53578 44.5103 4.15184C45.9544 2.76789 47.6091 1.72993 49.4745 1.03796C51.3699 0.345987 53.3555 0 55.4314 0C57.5675 0 59.5833 0.345987 61.4787 1.03796C63.3741 1.72993 65.0288 2.76789 66.4428 4.15184C67.8569 5.53578 68.97 7.25067 69.7823 9.2965C70.5947 11.3122 71.0008 13.6589 71.0008 16.3366Z" fill="#0B489D"/>
<path d="M37.563 25.9489V31.9962H16.6685V0.722031H23.7085V25.9489H37.563Z" fill="#0B489D"/>
</svg>
